<svg version="1.1" id="Capa_1" xmlns="http://www.w3.org/2000/svg" x="0" y="0" viewBox="0 0 99 99" style="enable-background:new 0 0 99 99" xml:space="preserve"><style>.st1{fill-rule:evenodd;clip-rule:evenodd;fill:#fff}</style><circle cx="49.8" cy="49.8" r="47.4" style="fill-rule:evenodd;clip-rule:evenodd;fill:#222"/><path id="Fill-5_00000081622371453193450290000016358352536482418851_" class="st1" d="M34.2 45.7c1.5-.2 2.6-1.1 2.7-2.6.2-3 .2-6-.1-8.9-.1-.8-1.1-1.9-1.9-2.1-1.5-.4-3.1-.3-4.7-.5v14.3c1.4-.1 2.7-.1 4-.2zm-3.9 22.1c1.8-.1 3.5-.1 5.2-.4 1.6-.3 2.8-1.4 2.8-3.1.1-2.9.2-5.8 0-8.7-.1-1.7-1.3-2.9-3-3.2-1.6-.2-3.2-.2-5-.3v15.7zm10.5-18.9c4.1 2 5.3 5.5 5.1 9.7-.1 2.4.1 4.9-.2 7.3-.8 5.1-4.9 8.4-10.1 8.5-3.1.1-6.2 0-9.3 0-2.1 0-3.5-1.4-3.5-3.5V28.8c0-1.9 1.2-3.5 3-3.5 3.7 0 7.5-.2 11.2.3 4.6.6 7.4 4 7.6 8.7.1 2.6.1 5.1 0 7.7-.2 2.7-1.6 5-3.8 6.9z"/><path id="Fill-6_00000137843926725059543320000016303962669390245562_" class="st1" d="M57.4 53v17.8c0 3-3 4.6-5.6 3.1-1.3-.8-1.7-2-1.7-3.5V29.6c0-2.5 1.4-3.8 3.8-3.8 2.1 0 3.5 1.4 3.5 3.5v16.8h7.9c0-.5.1-1 .1-1.5V29.5c0-2.4 1.4-3.7 3.7-3.7 2.1 0 3.5 1.4 3.5 3.5v41.2c0 2.5-1.3 3.9-3.6 3.9s-3.6-1.4-3.6-3.9V53h-8"/><path id="Fill-12_00000072970535029723327600000009489623847041797819_" d="M80.2 71.5c0 1.5-1.1 2.5-2.6 2.5s-2.5-1.1-2.4-2.6c0-1.5 1-2.5 2.6-2.5 1.5 0 2.5 1.1 2.4 2.6" style="fill-rule:evenodd;clip-rule:evenodd;fill:#86bad3"/></svg>
