<svg id="Capa_1" data-name="Capa 1" xmlns="http://www.w3.org/2000/svg" viewBox="0 0 99 99"><defs><style>.cls-1{fill:#222;}.cls-2{fill:#fff;}.cls-2,.cls-3{fill-rule:evenodd;}.cls-3{fill:#86bad3;}</style></defs><circle class="cls-1" cx="49.8" cy="49.8" r="47.4"/><path id="Fill-5" class="cls-2" d="M34.2,45.7a2.81,2.81,0,0,0,2.7-2.6,52.79,52.79,0,0,0-.1-8.9,3.07,3.07,0,0,0-1.9-2.1,35.59,35.59,0,0,0-4.7-.5V45.9C31.6,45.8,32.9,45.8,34.2,45.7ZM30.3,67.8a43.82,43.82,0,0,0,5.2-.4,3.13,3.13,0,0,0,2.8-3.1,84.16,84.16,0,0,0,0-8.7,3.42,3.42,0,0,0-3-3.2c-1.6-.2-3.2-.2-5-.3ZM40.8,48.9c4.1,2,5.3,5.5,5.1,9.7-.1,2.4.1,4.9-.2,7.3-.8,5.1-4.9,8.4-10.1,8.5-3.1.1-6.2,0-9.3,0a3.31,3.31,0,0,1-3.5-3.5V28.8c0-1.9,1.2-3.5,3-3.5a83.81,83.81,0,0,1,11.2.3c4.6.6,7.4,4,7.6,8.7.1,2.6.1,5.1,0,7.7a10.07,10.07,0,0,1-3.8,6.9Z"/><path id="Fill-6" class="cls-2" d="M57.4,53V70.8a3.6,3.6,0,0,1-5.6,3.1,3.7,3.7,0,0,1-1.7-3.5V29.6a3.43,3.43,0,0,1,3.8-3.8,3.31,3.31,0,0,1,3.5,3.5V46.1h7.9c0-.5.1-1,.1-1.5V29.5a3.37,3.37,0,0,1,3.7-3.7,3.31,3.31,0,0,1,3.5,3.5V70.5c0,2.5-1.3,3.9-3.6,3.9s-3.6-1.4-3.6-3.9V53h-8"/><path id="Fill-12" class="cls-3" d="M80.2,71.5A2.44,2.44,0,0,1,77.6,74a2.31,2.31,0,0,1-2.4-2.6,2.39,2.39,0,0,1,2.6-2.5,2.31,2.31,0,0,1,2.4,2.6"/></svg>
